<?xml version="1.0" encoding="UTF-8" standalone="no"?>
<svg
   width="128"
   height="128"
   viewBox="0 0 33.865272 33.816705"
   version="1.1"
   id="svg12"
   sodipodi:docname="calamares_offline.svg"
   inkscape:version="1.1.1 (3bf5ae0d25, 2021-09-20, custom)"
   inkscape:export-filename="/media/DATA/Development/RebornOS Labs/calamares-installer/calamares-core/scripts/archlinux_packaging/calamares-offline.png"
   inkscape:export-xdpi="192"
   inkscape:export-ydpi="192"
   xmlns:inkscape="http://www.inkscape.org/namespaces/inkscape"
   xmlns:sodipodi="http://sodipodi.sourceforge.net/DTD/sodipodi-0.dtd"
   xmlns:xlink="http://www.w3.org/1999/xlink"
   xmlns="http://www.w3.org/2000/svg"
   xmlns:svg="http://www.w3.org/2000/svg"
   xmlns:rdf="http://www.w3.org/1999/02/22-rdf-syntax-ns#"
   xmlns:cc="http://creativecommons.org/ns#"
   xmlns:dc="http://purl.org/dc/elements/1.1/">
  <metadata
     id="metadata18">
    <rdf:RDF>
      <cc:Work
         rdf:about="">
        <dc:format>image/svg+xml</dc:format>
        <dc:type
           rdf:resource="http://purl.org/dc/dcmitype/StillImage" />
      </cc:Work>
    </rdf:RDF>
  </metadata>
  <defs
     id="defs16">
    <filter
       inkscape:collect="always"
       style="color-interpolation-filters:sRGB"
       id="filter854"
       x="-2.0938284e-05"
       width="1.0000419"
       y="-2.4182116e-05"
       height="1.0000484">
      <feGaussianBlur
         inkscape:collect="always"
         stdDeviation="0.000302881"
         id="feGaussianBlur856" />
    </filter>
    <filter
       inkscape:collect="always"
       style="color-interpolation-filters:sRGB"
       id="filter858"
       x="-8.791795e-06"
       width="1.0000176"
       y="-1.0152436e-05"
       height="1.0000203">
      <feGaussianBlur
         inkscape:collect="always"
         stdDeviation="0.000302881"
         id="feGaussianBlur860" />
    </filter>
    <filter
       inkscape:collect="always"
       style="color-interpolation-filters:sRGB"
       id="filter862"
       x="-5.3677719e-06"
       width="1.0000107"
       y="-6.1973708e-06"
       height="1.0000124">
      <feGaussianBlur
         inkscape:collect="always"
         stdDeviation="0.000302881"
         id="feGaussianBlur864" />
    </filter>
    <filter
       inkscape:collect="always"
       style="color-interpolation-filters:sRGB"
       id="filter866"
       x="-0.0059043947"
       width="1.0118088"
       y="-0.0059054231"
       height="1.0118108">
      <feGaussianBlur
         inkscape:collect="always"
         stdDeviation="0.000302881"
         id="feGaussianBlur868" />
    </filter>
    <linearGradient
       id="linearGradient6715"
       y2="609.51001"
       gradientUnits="userSpaceOnUse"
       x2="302.85999"
       gradientTransform="matrix(2.7744,0,0,1.9697,-1892.2,-872.89)"
       y1="366.64999"
       x1="302.85999">
      <stop
         id="stop5050"
         style="stop-color:#000000;stop-opacity:0"
         offset="0" />
      <stop
         id="stop5056"
         style="stop-color:#000000"
         offset=".5" />
      <stop
         id="stop5052"
         style="stop-color:#000000;stop-opacity:0"
         offset="1" />
    </linearGradient>
    <radialGradient
       id="radialGradient6717"
       xlink:href="#linearGradient5060"
       gradientUnits="userSpaceOnUse"
       cy="486.64999"
       cx="605.71002"
       gradientTransform="matrix(2.7744,0,0,1.9697,-1891.6,-872.89)"
       r="117.14" />
    <linearGradient
       id="linearGradient5060">
      <stop
         id="stop5062"
         style="stop-color:#000000"
         offset="0" />
      <stop
         id="stop5064"
         style="stop-color:#000000;stop-opacity:0"
         offset="1" />
    </linearGradient>
    <radialGradient
       id="radialGradient6719"
       xlink:href="#linearGradient5060"
       gradientUnits="userSpaceOnUse"
       cy="486.64999"
       cx="605.71002"
       gradientTransform="matrix(-2.7744,0,0,1.9697,112.76,-872.89)"
       r="117.14" />
    <linearGradient
       id="linearGradient2288"
       y2="22.584999"
       gradientUnits="userSpaceOnUse"
       x2="24.99"
       gradientTransform="matrix(0.86276722,0,0,0.86276722,42.803644,37.441592)"
       y1="34.005001"
       x1="24.99">
      <stop
         id="stop4212"
         style="stop-color:#eaba6f"
         offset="0" />
      <stop
         id="stop4214"
         style="stop-color:#b97a1b"
         offset="1" />
    </linearGradient>
    <linearGradient
       id="linearGradient2285"
       y2="47.388"
       gradientUnits="userSpaceOnUse"
       x2="30.014999"
       gradientTransform="matrix(0.86276722,0,0,0.86276722,42.803644,37.441592)"
       y1="19.912001"
       x1="18.707001">
      <stop
         id="stop4224"
         style="stop-color:#ffffff"
         offset="0" />
      <stop
         id="stop4226"
         style="stop-color:#ffffff;stop-opacity:.68639"
         offset="1" />
    </linearGradient>
    <linearGradient
       id="linearGradient2280"
       y2="12.637"
       gradientUnits="userSpaceOnUse"
       x2="34.194"
       gradientTransform="matrix(0.86276722,0,0,0.89657853,42.803644,37.406506)"
       y1="12.637"
       x1="16.149">
      <stop
         id="stop4184"
         style="stop-color:#a36d18"
         offset="0" />
      <stop
         id="stop4186"
         style="stop-color:#d79020"
         offset="1" />
    </linearGradient>
    <linearGradient
       id="linearGradient2282"
       y2="16.021"
       gradientUnits="userSpaceOnUse"
       x2="22.072001"
       gradientTransform="matrix(0.86276722,0,0,0.86276722,42.803644,37.441592)"
       y1="9.7577"
       x1="21.907">
      <stop
         id="stop4989"
         style="stop-color:#a0670c"
         offset="0" />
      <stop
         id="stop4991"
         style="stop-color:#a0670c;stop-opacity:0"
         offset="1" />
    </linearGradient>
    <linearGradient
       id="linearGradient2277"
       y2="16.17"
       gradientUnits="userSpaceOnUse"
       x2="24.118999"
       gradientTransform="matrix(0.86276722,0,0,0.85098999,42.803644,37.715264)"
       y1="24.721001"
       x1="25.381001">
      <stop
         id="stop4194"
         style="stop-color:#e9b96e"
         offset="0" />
      <stop
         id="stop4196"
         style="stop-color:#f1d19e"
         offset="1" />
    </linearGradient>
    <linearGradient
       id="linearGradient2274"
       y2="15.268"
       gradientUnits="userSpaceOnUse"
       x2="47.066002"
       gradientTransform="matrix(0.86276722,0,0,0.86276722,42.803644,37.441592)"
       y1="14.662"
       x1="36.289001">
      <stop
         id="stop4997"
         style="stop-color:#de9523"
         offset="0" />
      <stop
         id="stop4999"
         style="stop-color:#a36d18"
         offset="1" />
    </linearGradient>
    <linearGradient
       id="linearGradient2269"
       y2="12.334"
       gradientUnits="userSpaceOnUse"
       x2="17.695999"
       gradientTransform="matrix(0.86276722,0,0,0.86276722,42.803644,37.441592)"
       y1="13.445"
       x1="30.062">
      <stop
         id="stop4981"
         style="stop-color:#fbf0e0"
         offset="0" />
      <stop
         id="stop4983"
         style="stop-color:#f0ce99"
         offset="1" />
    </linearGradient>
    <linearGradient
       id="linearGradient3666"
       y2="11.943"
       gradientUnits="userSpaceOnUse"
       x2="28.921"
       gradientTransform="matrix(0.86276722,0,0,0.86276722,42.932176,37.441592)"
       y1="-13.9"
       x1="13.74">
      <stop
         id="stop3662"
         style="stop-color:#00ff07"
         offset="0" />
      <stop
         id="stop3664"
         style="stop-color:#0d6203"
         offset="1" />
    </linearGradient>
    <linearGradient
       id="linearGradient3280"
       y2="521.38"
       xlink:href="#linearGradient5241"
       spreadMethod="reflect"
       gradientUnits="userSpaceOnUse"
       x2="-3.5969"
       gradientTransform="translate(235.87,-28.363)"
       y1="514.96997"
       x1="-73.263" />
    <linearGradient
       id="linearGradient5241">
      <stop
         id="stop5243"
         stop-color="#7c7c7c"
         offset="0" />
      <stop
         id="stop5245"
         stop-color="#c6c6c6"
         offset="1" />
    </linearGradient>
    <linearGradient
       id="linearGradient3282"
       y2="521.38"
       xlink:href="#linearGradient5241"
       spreadMethod="reflect"
       gradientUnits="userSpaceOnUse"
       x2="-3.5969"
       gradientTransform="translate(241.36,-29.278)"
       y1="514.96997"
       x1="-73.263" />
    <linearGradient
       id="linearGradient3284"
       y2="368.66"
       spreadMethod="reflect"
       gradientUnits="userSpaceOnUse"
       x2="213.74001"
       y1="473.79999"
       x1="390.20001">
      <stop
         id="stop7187"
         stop-color="#6f6f6f"
         offset="0" />
      <stop
         id="stop7189"
         stop-color="#f5f5f5"
         offset="1" />
    </linearGradient>
    <clipPath
       id="clipPath4248"
       clipPathUnits="userSpaceOnUse">
      <path
         id="path4250"
         opacity="0.79008"
         d="M 372.84,260.94 C 255.35,260.94 160,356.28 160,473.78 c 0,117.5 95.35,212.88 212.84,212.88 117.5,0 212.88,-95.38 212.88,-212.88 0,-117.5 -95.38,-212.84 -212.88,-212.84 z m 0,160 c 29.18,0 52.88,23.66 52.88,52.84 0,29.18 -23.7,52.88 -52.88,52.88 -29.17,0 -52.84,-23.7 -52.84,-52.88 0,-29.18 23.67,-52.84 52.84,-52.84 z"
         style="color:#000000"
         fill="#666666" />
    </clipPath>
    <clipPath
       id="clipPath4244"
       clipPathUnits="userSpaceOnUse">
      <path
         id="path4246"
         opacity="0.79008"
         d="M 372.84,260.94 C 255.35,260.94 160,356.28 160,473.78 c 0,117.5 95.35,212.88 212.84,212.88 117.5,0 212.88,-95.38 212.88,-212.88 0,-117.5 -95.38,-212.84 -212.88,-212.84 z m 0,160 c 29.18,0 52.88,23.66 52.88,52.84 0,29.18 -23.7,52.88 -52.88,52.88 -29.17,0 -52.84,-23.7 -52.84,-52.88 0,-29.18 23.67,-52.84 52.84,-52.84 z"
         style="color:#000000"
         fill="#666666" />
    </clipPath>
    <filter
       id="filter11193"
       y="-0.10036094"
       width="1.4976526"
       height="1.2007219"
       x="-0.24882631">
      <feGaussianBlur
         id="feGaussianBlur11195"
         stdDeviation="18.143585" />
    </filter>
    <clipPath
       id="clipPath4240"
       clipPathUnits="userSpaceOnUse">
      <path
         id="path4242"
         opacity="0.79008"
         d="M 372.84,260.94 C 255.35,260.94 160,356.28 160,473.78 c 0,117.5 95.35,212.88 212.84,212.88 117.5,0 212.88,-95.38 212.88,-212.88 0,-117.5 -95.38,-212.84 -212.88,-212.84 z m 0,160 c 29.18,0 52.88,23.66 52.88,52.84 0,29.18 -23.7,52.88 -52.88,52.88 -29.17,0 -52.84,-23.7 -52.84,-52.88 0,-29.18 23.67,-52.84 52.84,-52.84 z"
         style="color:#000000"
         fill="#666666" />
    </clipPath>
    <filter
       id="filter11189"
       y="-0.10513703"
       width="1.3612761"
       height="1.2102741"
       x="-0.18063803">
      <feGaussianBlur
         id="feGaussianBlur11191"
         stdDeviation="18.143585" />
    </filter>
    <clipPath
       id="clipPath4236"
       clipPathUnits="userSpaceOnUse">
      <path
         id="path4238"
         opacity="0.79008"
         d="M 372.84,260.94 C 255.35,260.94 160,356.28 160,473.78 c 0,117.5 95.35,212.88 212.84,212.88 117.5,0 212.88,-95.38 212.88,-212.88 0,-117.5 -95.38,-212.84 -212.88,-212.84 z m 0,160 c 29.18,0 52.88,23.66 52.88,52.84 0,29.18 -23.7,52.88 -52.88,52.88 -29.17,0 -52.84,-23.7 -52.84,-52.88 0,-29.18 23.67,-52.84 52.84,-52.84 z"
         style="color:#000000"
         fill="#666666" />
    </clipPath>
    <filter
       id="filter11185"
       y="-0.11367568"
       width="1.2914535"
       height="1.2273514"
       x="-0.14572673">
      <feGaussianBlur
         id="feGaussianBlur11187"
         stdDeviation="18.143585" />
    </filter>
    <clipPath
       id="clipPath4232"
       clipPathUnits="userSpaceOnUse">
      <path
         id="path4234"
         opacity="0.79008"
         d="M 372.84,260.94 C 255.35,260.94 160,356.28 160,473.78 c 0,117.5 95.35,212.88 212.84,212.88 117.5,0 212.88,-95.38 212.88,-212.88 0,-117.5 -95.38,-212.84 -212.88,-212.84 z m 0,160 c 29.18,0 52.88,23.66 52.88,52.84 0,29.18 -23.7,52.88 -52.88,52.88 -29.17,0 -52.84,-23.7 -52.84,-52.88 0,-29.18 23.67,-52.84 52.84,-52.84 z"
         style="color:#000000"
         fill="#666666" />
    </clipPath>
    <filter
       id="filter11181"
       y="-0.12581146"
       width="1.2462652"
       height="1.2516229"
       x="-0.12313258">
      <feGaussianBlur
         id="feGaussianBlur11183"
         stdDeviation="18.143585" />
    </filter>
  </defs>
  <sodipodi:namedview
     pagecolor="#ffffff"
     bordercolor="#666666"
     borderopacity="1"
     objecttolerance="10"
     gridtolerance="10"
     guidetolerance="10"
     inkscape:pageopacity="0"
     inkscape:pageshadow="2"
     inkscape:window-width="1920"
     inkscape:window-height="995"
     id="namedview14"
     showgrid="false"
     inkscape:zoom="5.2046588"
     inkscape:cx="52.549074"
     inkscape:cy="62.155852"
     inkscape:window-x="0"
     inkscape:window-y="0"
     inkscape:window-maximized="1"
     inkscape:current-layer="svg12"
     inkscape:document-rotation="0"
     fit-margin-top="0"
     fit-margin-left="0"
     fit-margin-right="0"
     fit-margin-bottom="0"
     inkscape:pagecheckerboard="0" />
  <g
     id="g3913"
     transform="matrix(0.40505329,0,0,0.40505329,0,2.0791246)">
    <g
       id="g1036"
       transform="translate(0.48714649,0.47293766)">
      <path
         d="m 112.236,129.173 h -73.4 l -36.7,-63.565 36.7,-63.56 h 73.4 l 36.7,63.563 z"
         fill="#1a1a1a"
         stroke="#cccccc"
         stroke-width="1.5"
         id="path4"
         style="filter:url(#filter866)"
         transform="matrix(0.5625,0,0,0.5625,-1.2010911,-1.2656088)" />
      <path
         d="m 41.682,6.974 -15.332,26.542 15.149999,8.747 10.28,-17.797 H 72.332997 V 6.972 Z m 37.056997,0 V 24.468 H 99.291999 L 109.572,42.273 124.722,33.526 109.392,6.974 Z m 49.187003,32.098 -15.15,8.747 10.273,17.8 -10.28,17.807 15.15,8.747 15.33,-26.552 z m -104.778,0 L 7.827,65.6 23.157,92.152 38.306999,83.405 28.027,65.598 38.299999,47.798 Z M 41.507999,88.972 26.36,97.71 41.682,124.247 H 72.334998 V 106.753 H 51.784999 Z m 68.054001,0 -10.273,17.8 H 78.74 v 17.494 h 30.655 l 15.32,-26.537 z"
         fill="#277748"
         id="path6"
         style="fill:#006680;fill-opacity:1;stroke-width:1;filter:url(#filter862)"
         transform="matrix(0.5625,0,0,0.5625,-1.2010911,-1.2656088)" />
      <path
         d="m 54.87,29.81 -8.747,15.132 13.08,7.552 4.38,-7.583 H 72.33 V 29.81 Z m 23.87,0 v 15.103 h 8.747 l 4.38,7.583 13.08,-7.552 L 96.2,29.812 Z M 42.928,50.49 34.2,65.608 l 8.747,15.132 13.08,-7.552 -4.38,-7.583 4.37,-7.566 z m 65.216,0 -13.08,7.552 4.37,7.566 -4.38,7.583 13.08,7.552 8.747,-15.132 z M 59.22,78.738 46.14,86.29 54.868,101.41 H 72.334 V 86.305 h -8.747 z m 32.635,0 -4.37,7.566 H 78.74 v 15.103 h 17.466 l 8.728,-15.12 z"
         fill="#649f4b"
         id="path8"
         style="fill:#0086a8;fill-opacity:1;filter:url(#filter858)"
         transform="matrix(0.5625,0,0,0.5625,-1.2010911,-1.2656088)" />
      <path
         d="M 84.216,80.64 H 66.86 L 58.18,65.61 66.86,50.58 h 17.357 l 8.68,15.03 z"
         fill="#656565"
         id="path10"
         style="fill:#00acd6;fill-opacity:1;filter:url(#filter854)"
         transform="matrix(0.5625,0,0,0.5625,-1.2010911,-1.2656088)" />
    </g>
    <g
       id="g6707"
       transform="matrix(0.01816524,0,0,0.01800385,79.558557,67.987552)">
      <rect
         id="rect6709"
         style="color:#000000;opacity:0.40206;fill:url(#linearGradient6715)"
         height="478.35999"
         width="1339.6"
         y="-150.7"
         x="-1559.3" />
      <path
         id="path6711"
         style="color:#000000;opacity:0.40206;fill:url(#radialGradient6717)"
         d="m -219.62,-150.68 v 478.33 c 142.87,0.90045 345.4,-107.17 345.4,-239.2 0,-132.03 -159.44,-239.13 -345.4,-239.13 z" />
      <path
         id="path6713"
         style="color:#000000;opacity:0.40206;fill:url(#radialGradient6719)"
         d="m -1559.3,-150.68 v 478.33 c -142.87,0.90045 -345.4,-107.17 -345.4,-239.2 0,-132.03 159.44,-239.13 345.4,-239.13 z" />
    </g>
    <rect
       id="rect3115"
       style="color:#000000;display:block;fill:url(#linearGradient2288);stroke:#a0670c;stroke-width:0.862767"
       rx="2.0914826"
       ry="2.0658696"
       height="19.940599"
       width="27.589371"
       y="50.621101"
       x="49.241829" />
    <rect
       id="rect4220"
       style="color:#000000;display:block;opacity:0.48101;fill:none;stroke:url(#linearGradient2285);stroke-width:0.862767"
       rx="1.1083933"
       ry="1.1083933"
       height="18.182787"
       width="25.714603"
       y="51.45615"
       x="50.136524" />
    <path
       id="path4162"
       style="fill:url(#linearGradient2280);fill-rule:evenodd;stroke:url(#linearGradient2282);stroke-width:0.862767"
       d="m 50.37043,51.718127 4.356992,-5.876221 16.215626,-0.08715 4.503652,5.844058 -25.077206,0.119269 z" />
    <path
       id="path4164"
       style="color:#000000;display:block;fill:url(#linearGradient2277);stroke:#a0670c;stroke-width:0.862767;stroke-linecap:round;stroke-linejoin:round"
       d="m 75.827735,51.527492 4.480261,6.207316 H 46.221849 l 4.024025,-6.211643 25.582446,0.0042 z" />
    <path
       id="path4178"
       style="color:#000000;display:block;fill:url(#linearGradient2274);stroke:#a0670c;stroke-width:0.862767;stroke-linecap:round;stroke-linejoin:round"
       d="m 71.14491,45.737116 4.040281,5.972356 7.79391,3.7831 -7.000964,-7.689586 z" />
    <path
       id="path4180"
       style="color:#000000;display:block;fill:#f8e8cf;stroke:#a0670c;stroke-width:0.862767;stroke-linecap:round;stroke-linejoin:round"
       d="m 54.552693,45.823662 -3.430134,5.797978 -7.88104,3.7831 7.000963,-7.689587 4.310328,-1.891491 z" />
    <path
       id="path4954"
       style="color:#000000;display:block;fill:none;stroke:#f4e3ca;stroke-width:0.862767"
       d="m 74.747083,51.622225 3.842747,5.225724 H 47.676636 l 3.5727,-5.332152 23.498332,0.106428 z" />
    <path
       id="path4966"
       style="opacity:0.87975;fill:none;stroke:url(#linearGradient2269);stroke-width:0.862767;stroke-linecap:round;stroke-linejoin:round"
       d="m 51.131798,51.567256 2.919865,-4.985735 17.668191,-0.0649 3.314701,5.049007 -23.902991,0.0016 z" />
    <path
       id="path2882"
       style="fill:url(#linearGradient3666);stroke:#002d27;stroke-width:1.32286;stroke-miterlimit:4;stroke-dasharray:none;stroke-opacity:1"
       d="m 58.965355,25.880956 -0.05393,10.230873 H 55.21768 l 7.81882,13.535048 7.818821,-13.535048 h -3.666732 l -0.05393,-10.230873 h -8.169331 z" />
  </g>
  <g
     id="layer1"
     transform="matrix(0.04187385,0,0,0.04187385,14.972861,-4.7208002)">
    <g
       id="g2267"
       transform="matrix(0.74601,0,0,0.74601,-31.657,-84.297)">
      <path
         id="path4252"
         stroke-linejoin="round"
         style="color:#000000;stroke:url(#linearGradient3280)"
         d="m 379.05,273.75 c -117.5,0 -212.85,95.35 -212.85,212.84 0,117.5 95.35,212.88 212.85,212.88 117.49,0 212.87,-95.38 212.87,-212.88 0,-117.49 -95.38,-212.84 -212.87,-212.84 z m 0,160 c 29.17,0 52.87,23.67 52.87,52.84 0,29.18 -23.7,52.88 -52.87,52.88 -29.18,0 -52.85,-23.7 -52.85,-52.88 0,-29.17 23.67,-52.84 52.85,-52.84 z"
         stroke="url(#linearGradient3280)"
         stroke-width="7.2"
         fill="none" />
      <path
         id="path4254"
         stroke-linejoin="round"
         style="color:#000000;stroke:url(#linearGradient3282)"
         d="m 384.54,272.83 c -117.5,0 -212.85,95.35 -212.85,212.85 0,117.49 95.35,212.87 212.85,212.87 117.49,0 212.87,-95.38 212.87,-212.87 0,-117.5 -95.38,-212.85 -212.87,-212.85 z m 0,160 c 29.17,0 52.87,23.67 52.87,52.85 0,29.17 -23.7,52.87 -52.87,52.87 -29.18,0 -52.85,-23.7 -52.85,-52.87 0,-29.18 23.67,-52.85 52.85,-52.85 z"
         stroke="url(#linearGradient3282)"
         stroke-width="7.2"
         fill="none" />
      <path
         id="path2160"
         style="color:#000000;fill:url(#linearGradient3284)"
         d="M 372.84,260.94 C 255.35,260.94 160,356.28 160,473.78 c 0,117.5 95.35,212.88 212.84,212.88 117.5,0 212.88,-95.38 212.88,-212.88 0,-117.5 -95.38,-212.84 -212.88,-212.84 z m 0,160 c 29.18,0 52.88,23.66 52.88,52.84 0,29.18 -23.7,52.88 -52.88,52.88 -29.17,0 -52.84,-23.7 -52.84,-52.88 0,-29.18 23.67,-52.84 52.84,-52.84 z"
         clip-path="url(#clipPath4248)"
         transform="translate(8.9468,11.896)"
         fill="url(#linearGradient3284)" />
      <path
         id="rect3138"
         opacity="0.27099"
         style="color:#000000"
         d="m 328.93,254.86 41.51,216.98 87.63,202.8 -45.85,14.1 -41.52,-216.98 -87.63,-202.8 z"
         clip-path="url(#clipPath4244)"
         transform="rotate(4.3497739,218.41779,597.53388)"
         filter="url(#filter11193)"
         fill="#ff0000" />
      <path
         id="path4112"
         opacity="0.27099"
         style="color:#000000"
         d="M 293.55,264.71 370.45,471.86 491.1,656.97 447.59,678.88 370.69,471.74 250.04,286.62 Z"
         clip-path="url(#clipPath4240)"
         transform="matrix(0.99994,-0.011097,0.011097,0.99994,3.7343,16.037)"
         filter="url(#filter11189)"
         fill="#ffff00" />
      <path
         id="path4114"
         opacity="0.27099"
         style="color:#000000"
         d="M 260.93,279.9 370.46,471.88 519.48,634.94 481.21,662.96 370.68,471.72 220.67,309.4 Z"
         clip-path="url(#clipPath4236)"
         transform="matrix(0.99501,-0.09973,0.09973,0.99501,-36.224,51.154)"
         filter="url(#filter11185)"
         fill="#00ff00" />
      <path
         id="path4116"
         opacity="0.27099"
         style="color:#000000"
         d="M 233.04,298.24 370.48,471.9 546.91,605.46 509.08,644.35 370.67,471.7 193.27,339.14 Z"
         clip-path="url(#clipPath4232)"
         transform="matrix(0.97849,-0.20631,0.20631,0.97849,-80.326,98.389)"
         filter="url(#filter11181)"
         fill="#0000ff" />
      <path
         id="path2165"
         opacity="0.38931"
         stroke-linejoin="round"
         style="color:#000000"
         d="m 471.43,480.93 a 74.286,74.286 0 1 1 -148.57,0 74.286,74.286 0 1 1 148.57,0 z"
         transform="matrix(0.88601,0,0,0.88601,29.475,60.037)"
         stroke="#d2d2d2"
         stroke-width="20"
         fill="none" />
    </g>
  </g>
</svg>
