<?xml version="1.0" encoding="utf-8"?>
<!-- Svg Vector Icons : http://www.onlinewebfonts.com/icon -->
<!DOCTYPE svg PUBLIC "-//W3C//DTD SVG 1.1//EN" "http://www.w3.org/Graphics/SVG/1.1/DTD/svg11.dtd">
<svg version="1.1" xmlns="http://www.w3.org/2000/svg" xmlns:xlink="http://www.w3.org/1999/xlink" x="0px" y="0px" viewBox="0 0 1000 1000" enable-background="new 0 0 1000 1000" xml:space="preserve">
<metadata> Svg Vector Icons : http://www.onlinewebfonts.com/icon </metadata>
<g><g transform="translate(0.000000,511.000000) scale(0.100000,-0.100000)"><path fill="#FFFFFF" d="M1755,1514.1C875.7,828.2,143.7,245.9,127.6,218.2c-36.8-64.5-36.8-151.9,0-216.4c27.6-50.6,3158-2497.4,3229.4-2525c20.7-6.9,1468.5-13.8,3217.9-13.8c3475.7,0,3245.5-9.2,3303,131.2c18.4,48.3,25.3,715.8,20.7,2557.3l-6.9,2495.1l-64.4,55.2l-64.5,55.2H6558.8H3354.7L1755,1514.1z M9442.9,110.1v-2186.7H6480.5H3515.8L2123.3-992.5C1356.8-398.6,730.7,98.5,730.7,110.1c0,13.8,626.1,508.7,1390.3,1104.8l1392.6,1081.8h2964.7h2964.7V110.1z"/><path fill="#FFFFFF" d="M4917.6,1735.1c-94.4-41.4-147.3-119.7-147.3-218.7c0-76,48.3-131.2,690.5-773.4l690.5-690.5L5460.8-638c-662.9-662.9-690.5-695.1-690.5-780.3c0-126.6,99-221,232.5-221c99,0,99,0,784.9,683.6l685.9,685.9l685.9-685.9c685.9-683.6,685.9-683.6,784.9-683.6c133.5,0,232.5,94.4,232.5,221c0,85.2-27.6,117.4-690.5,780.3L6795.8,52.5L7486.4,743c662.9,662.9,690.5,695.1,690.5,780.3c0,126.6-99,221-232.5,221c-99,0-99,0-784.9-683.6l-685.9-685.9l-685.9,685.9c-377.5,375.2-697.4,683.6-711.3,683.6c-13.8,0-39.1,4.6-57.5,11.5C5002.8,1760.4,4956.7,1751.2,4917.6,1735.1z"/></g></g>
</svg>
