<?xml version="1.0" encoding="utf-8"?>
<!-- Svg Vector Icons : http://www.onlinewebfonts.com/icon -->
<!DOCTYPE svg PUBLIC "-//W3C//DTD SVG 1.1//EN" "http://www.w3.org/Graphics/SVG/1.1/DTD/svg11.dtd">
<svg version="1.1" xmlns="http://www.w3.org/2000/svg" xmlns:xlink="http://www.w3.org/1999/xlink" x="0px" y="0px" viewBox="0 0 1000 1000" enable-background="new 0 0 1000 1000" xml:space="preserve">
<metadata> Svg Vector Icons : http://www.onlinewebfonts.com/icon </metadata>
<g><path fill="#FFFFFF" d="M987.8,489.5c-1.3-3.6-3.2-7.1-6.1-10L519.8,18.8c-0.2-0.2-0.2-0.4-0.4-0.6c-5.3-5.5-12.3-8.3-19.2-8.2c-6.9,0-13.9,2.7-19.2,8.2c-0.1,0.1-0.1,0.2-0.2,0.4L17.9,479.5c-10.6,10.9-10.6,28.7,0,39.7c5.3,5.6,12.4,8.3,19.4,8.2c0.1,0,0.2,0.1,0.4,0.1h217.7v435.3c0,15,12.2,27.2,27.2,27.2h435.3c15.1,0,27.2-12.2,27.2-27.2V527.4h217.7c15,0,27.2-12.2,27.2-27.2C990,496.4,989.2,492.8,987.8,489.5z M717.9,473c-15,0-27.2,12.2-27.2,27.2v435.3H309.8V500.2c0-15-12.2-27.2-27.2-27.2h-180L500.2,77.2l397,395.8H717.9z"/></g>
</svg>
