<?xml version="1.0" encoding="UTF-8" standalone="no"?>
<svg
   width="128"
   height="128"
   viewBox="0 0 33.865272 33.816705"
   version="1.1"
   id="svg12"
   sodipodi:docname="rebornos-calamares.svg"
   inkscape:version="1.1 (c4e8f9ed74, 2021-05-24)"
   inkscape:export-filename="/run/media/shivanandvp/DATA/Development/RebornOS/rebornos-calamares/rebornos-calamares-package/rebornos-calamares-core/rebornos-calamares.png"
   inkscape:export-xdpi="75"
   inkscape:export-ydpi="75"
   xmlns:inkscape="http://www.inkscape.org/namespaces/inkscape"
   xmlns:sodipodi="http://sodipodi.sourceforge.net/DTD/sodipodi-0.dtd"
   xmlns:xlink="http://www.w3.org/1999/xlink"
   xmlns="http://www.w3.org/2000/svg"
   xmlns:svg="http://www.w3.org/2000/svg"
   xmlns:rdf="http://www.w3.org/1999/02/22-rdf-syntax-ns#"
   xmlns:cc="http://creativecommons.org/ns#"
   xmlns:dc="http://purl.org/dc/elements/1.1/">
  <metadata
     id="metadata18">
    <rdf:RDF>
      <cc:Work
         rdf:about="">
        <dc:format>image/svg+xml</dc:format>
        <dc:type
           rdf:resource="http://purl.org/dc/dcmitype/StillImage" />
      </cc:Work>
    </rdf:RDF>
  </metadata>
  <defs
     id="defs16">
    <filter
       inkscape:collect="always"
       style="color-interpolation-filters:sRGB"
       id="filter854"
       x="-2.0938284e-05"
       width="1.0000419"
       y="-2.4182116e-05"
       height="1.0000484">
      <feGaussianBlur
         inkscape:collect="always"
         stdDeviation="0.000302881"
         id="feGaussianBlur856" />
    </filter>
    <filter
       inkscape:collect="always"
       style="color-interpolation-filters:sRGB"
       id="filter858"
       x="-8.791795e-06"
       width="1.0000176"
       y="-1.0152436e-05"
       height="1.0000203">
      <feGaussianBlur
         inkscape:collect="always"
         stdDeviation="0.000302881"
         id="feGaussianBlur860" />
    </filter>
    <filter
       inkscape:collect="always"
       style="color-interpolation-filters:sRGB"
       id="filter862"
       x="-5.3677719e-06"
       width="1.0000107"
       y="-6.1973708e-06"
       height="1.0000124">
      <feGaussianBlur
         inkscape:collect="always"
         stdDeviation="0.000302881"
         id="feGaussianBlur864" />
    </filter>
    <filter
       inkscape:collect="always"
       style="color-interpolation-filters:sRGB"
       id="filter866"
       x="-0.0059043947"
       width="1.0118088"
       y="-0.0059054231"
       height="1.0118108">
      <feGaussianBlur
         inkscape:collect="always"
         stdDeviation="0.000302881"
         id="feGaussianBlur868" />
    </filter>
    <linearGradient
       id="linearGradient6715"
       y2="609.51001"
       gradientUnits="userSpaceOnUse"
       x2="302.85999"
       gradientTransform="matrix(2.7744,0,0,1.9697,-1892.2,-872.89)"
       y1="366.64999"
       x1="302.85999">
      <stop
         id="stop5050"
         style="stop-color:#000000;stop-opacity:0"
         offset="0" />
      <stop
         id="stop5056"
         style="stop-color:#000000"
         offset=".5" />
      <stop
         id="stop5052"
         style="stop-color:#000000;stop-opacity:0"
         offset="1" />
    </linearGradient>
    <radialGradient
       id="radialGradient6717"
       xlink:href="#linearGradient5060"
       gradientUnits="userSpaceOnUse"
       cy="486.64999"
       cx="605.71002"
       gradientTransform="matrix(2.7744,0,0,1.9697,-1891.6,-872.89)"
       r="117.14" />
    <linearGradient
       id="linearGradient5060">
      <stop
         id="stop5062"
         style="stop-color:#000000"
         offset="0" />
      <stop
         id="stop5064"
         style="stop-color:#000000;stop-opacity:0"
         offset="1" />
    </linearGradient>
    <radialGradient
       id="radialGradient6719"
       xlink:href="#linearGradient5060"
       gradientUnits="userSpaceOnUse"
       cy="486.64999"
       cx="605.71002"
       gradientTransform="matrix(-2.7744,0,0,1.9697,112.76,-872.89)"
       r="117.14" />
    <linearGradient
       id="linearGradient2288"
       y2="22.584999"
       gradientUnits="userSpaceOnUse"
       x2="24.99"
       gradientTransform="matrix(0.86276722,0,0,0.86276722,42.803644,37.441592)"
       y1="34.005001"
       x1="24.99">
      <stop
         id="stop4212"
         style="stop-color:#eaba6f"
         offset="0" />
      <stop
         id="stop4214"
         style="stop-color:#b97a1b"
         offset="1" />
    </linearGradient>
    <linearGradient
       id="linearGradient2285"
       y2="47.388"
       gradientUnits="userSpaceOnUse"
       x2="30.014999"
       gradientTransform="matrix(0.86276722,0,0,0.86276722,42.803644,37.441592)"
       y1="19.912001"
       x1="18.707001">
      <stop
         id="stop4224"
         style="stop-color:#ffffff"
         offset="0" />
      <stop
         id="stop4226"
         style="stop-color:#ffffff;stop-opacity:.68639"
         offset="1" />
    </linearGradient>
    <linearGradient
       id="linearGradient2280"
       y2="12.637"
       gradientUnits="userSpaceOnUse"
       x2="34.194"
       gradientTransform="matrix(0.86276722,0,0,0.89657853,42.803644,37.406506)"
       y1="12.637"
       x1="16.149">
      <stop
         id="stop4184"
         style="stop-color:#a36d18"
         offset="0" />
      <stop
         id="stop4186"
         style="stop-color:#d79020"
         offset="1" />
    </linearGradient>
    <linearGradient
       id="linearGradient2282"
       y2="16.021"
       gradientUnits="userSpaceOnUse"
       x2="22.072001"
       gradientTransform="matrix(0.86276722,0,0,0.86276722,42.803644,37.441592)"
       y1="9.7577"
       x1="21.907">
      <stop
         id="stop4989"
         style="stop-color:#a0670c"
         offset="0" />
      <stop
         id="stop4991"
         style="stop-color:#a0670c;stop-opacity:0"
         offset="1" />
    </linearGradient>
    <linearGradient
       id="linearGradient2277"
       y2="16.17"
       gradientUnits="userSpaceOnUse"
       x2="24.118999"
       gradientTransform="matrix(0.86276722,0,0,0.85098999,42.803644,37.715264)"
       y1="24.721001"
       x1="25.381001">
      <stop
         id="stop4194"
         style="stop-color:#e9b96e"
         offset="0" />
      <stop
         id="stop4196"
         style="stop-color:#f1d19e"
         offset="1" />
    </linearGradient>
    <linearGradient
       id="linearGradient2274"
       y2="15.268"
       gradientUnits="userSpaceOnUse"
       x2="47.066002"
       gradientTransform="matrix(0.86276722,0,0,0.86276722,42.803644,37.441592)"
       y1="14.662"
       x1="36.289001">
      <stop
         id="stop4997"
         style="stop-color:#de9523"
         offset="0" />
      <stop
         id="stop4999"
         style="stop-color:#a36d18"
         offset="1" />
    </linearGradient>
    <linearGradient
       id="linearGradient2269"
       y2="12.334"
       gradientUnits="userSpaceOnUse"
       x2="17.695999"
       gradientTransform="matrix(0.86276722,0,0,0.86276722,42.803644,37.441592)"
       y1="13.445"
       x1="30.062">
      <stop
         id="stop4981"
         style="stop-color:#fbf0e0"
         offset="0" />
      <stop
         id="stop4983"
         style="stop-color:#f0ce99"
         offset="1" />
    </linearGradient>
    <linearGradient
       id="linearGradient3666"
       y2="11.943"
       gradientUnits="userSpaceOnUse"
       x2="28.921"
       gradientTransform="matrix(0.86276722,0,0,0.86276722,42.932176,37.441592)"
       y1="-13.9"
       x1="13.74">
      <stop
         id="stop3662"
         style="stop-color:#00ff07"
         offset="0" />
      <stop
         id="stop3664"
         style="stop-color:#0d6203"
         offset="1" />
    </linearGradient>
  </defs>
  <sodipodi:namedview
     pagecolor="#ffffff"
     bordercolor="#666666"
     borderopacity="1"
     objecttolerance="10"
     gridtolerance="10"
     guidetolerance="10"
     inkscape:pageopacity="0"
     inkscape:pageshadow="2"
     inkscape:window-width="1920"
     inkscape:window-height="988"
     id="namedview14"
     showgrid="false"
     inkscape:zoom="3.6802495"
     inkscape:cx="76.489379"
     inkscape:cy="86.271324"
     inkscape:window-x="0"
     inkscape:window-y="0"
     inkscape:window-maximized="1"
     inkscape:current-layer="svg12"
     inkscape:document-rotation="0"
     fit-margin-top="0"
     fit-margin-left="0"
     fit-margin-right="0"
     fit-margin-bottom="0"
     inkscape:pagecheckerboard="0" />
  <g
     id="g3913"
     transform="matrix(0.40505329,0,0,0.40505329,0,2.0791246)">
    <g
       id="g1036"
       transform="translate(0.48714649,0.47293766)">
      <path
         d="m 112.236,129.173 h -73.4 l -36.7,-63.565 36.7,-63.56 h 73.4 l 36.7,63.563 z"
         fill="#1a1a1a"
         stroke="#cccccc"
         stroke-width="1.5"
         id="path4"
         style="filter:url(#filter866)"
         transform="matrix(0.5625,0,0,0.5625,-1.2010911,-1.2656088)" />
      <path
         d="m 41.682,6.974 -15.332,26.542 15.149999,8.747 10.28,-17.797 H 72.332997 V 6.972 Z m 37.056997,0 V 24.468 H 99.291999 L 109.572,42.273 124.722,33.526 109.392,6.974 Z m 49.187003,32.098 -15.15,8.747 10.273,17.8 -10.28,17.807 15.15,8.747 15.33,-26.552 z m -104.778,0 L 7.827,65.6 23.157,92.152 38.306999,83.405 28.027,65.598 38.299999,47.798 Z M 41.507999,88.972 26.36,97.71 41.682,124.247 H 72.334998 V 106.753 H 51.784999 Z m 68.054001,0 -10.273,17.8 H 78.74 v 17.494 h 30.655 l 15.32,-26.537 z"
         fill="#277748"
         id="path6"
         style="fill:#006680;fill-opacity:1;stroke-width:1;filter:url(#filter862)"
         transform="matrix(0.5625,0,0,0.5625,-1.2010911,-1.2656088)" />
      <path
         d="m 54.87,29.81 -8.747,15.132 13.08,7.552 4.38,-7.583 H 72.33 V 29.81 Z m 23.87,0 v 15.103 h 8.747 l 4.38,7.583 13.08,-7.552 L 96.2,29.812 Z M 42.928,50.49 34.2,65.608 l 8.747,15.132 13.08,-7.552 -4.38,-7.583 4.37,-7.566 z m 65.216,0 -13.08,7.552 4.37,7.566 -4.38,7.583 13.08,7.552 8.747,-15.132 z M 59.22,78.738 46.14,86.29 54.868,101.41 H 72.334 V 86.305 h -8.747 z m 32.635,0 -4.37,7.566 H 78.74 v 15.103 h 17.466 l 8.728,-15.12 z"
         fill="#649f4b"
         id="path8"
         style="fill:#0086a8;fill-opacity:1;filter:url(#filter858)"
         transform="matrix(0.5625,0,0,0.5625,-1.2010911,-1.2656088)" />
      <path
         d="M 84.216,80.64 H 66.86 L 58.18,65.61 66.86,50.58 h 17.357 l 8.68,15.03 z"
         fill="#656565"
         id="path10"
         style="fill:#00acd6;fill-opacity:1;filter:url(#filter854)"
         transform="matrix(0.5625,0,0,0.5625,-1.2010911,-1.2656088)" />
    </g>
    <g
       id="g6707"
       transform="matrix(0.01816524,0,0,0.01800385,79.558557,67.987552)">
      <rect
         id="rect6709"
         style="color:#000000;opacity:0.40206;fill:url(#linearGradient6715)"
         height="478.35999"
         width="1339.6"
         y="-150.7"
         x="-1559.3" />
      <path
         id="path6711"
         style="color:#000000;opacity:0.40206;fill:url(#radialGradient6717)"
         d="m -219.62,-150.68 v 478.33 c 142.87,0.90045 345.4,-107.17 345.4,-239.2 0,-132.03 -159.44,-239.13 -345.4,-239.13 z" />
      <path
         id="path6713"
         style="color:#000000;opacity:0.40206;fill:url(#radialGradient6719)"
         d="m -1559.3,-150.68 v 478.33 c -142.87,0.90045 -345.4,-107.17 -345.4,-239.2 0,-132.03 159.44,-239.13 345.4,-239.13 z" />
    </g>
    <rect
       id="rect3115"
       style="color:#000000;display:block;fill:url(#linearGradient2288);stroke:#a0670c;stroke-width:0.862767"
       rx="2.0914826"
       ry="2.0658696"
       height="19.940599"
       width="27.589371"
       y="50.621101"
       x="49.241829" />
    <rect
       id="rect4220"
       style="color:#000000;display:block;opacity:0.48101;fill:none;stroke:url(#linearGradient2285);stroke-width:0.862767"
       rx="1.1083933"
       ry="1.1083933"
       height="18.182787"
       width="25.714603"
       y="51.45615"
       x="50.136524" />
    <path
       id="path4162"
       style="fill:url(#linearGradient2280);fill-rule:evenodd;stroke:url(#linearGradient2282);stroke-width:0.862767"
       d="m 50.37043,51.718127 4.356992,-5.876221 16.215626,-0.08715 4.503652,5.844058 -25.077206,0.119269 z" />
    <path
       id="path4164"
       style="color:#000000;display:block;fill:url(#linearGradient2277);stroke:#a0670c;stroke-width:0.862767;stroke-linecap:round;stroke-linejoin:round"
       d="m 75.827735,51.527492 4.480261,6.207316 H 46.221849 l 4.024025,-6.211643 25.582446,0.0042 z" />
    <path
       id="path4178"
       style="color:#000000;display:block;fill:url(#linearGradient2274);stroke:#a0670c;stroke-width:0.862767;stroke-linecap:round;stroke-linejoin:round"
       d="m 71.14491,45.737116 4.040281,5.972356 7.79391,3.7831 -7.000964,-7.689586 z" />
    <path
       id="path4180"
       style="color:#000000;display:block;fill:#f8e8cf;stroke:#a0670c;stroke-width:0.862767;stroke-linecap:round;stroke-linejoin:round"
       d="m 54.552693,45.823662 -3.430134,5.797978 -7.88104,3.7831 7.000963,-7.689587 4.310328,-1.891491 z" />
    <path
       id="path4954"
       style="color:#000000;display:block;fill:none;stroke:#f4e3ca;stroke-width:0.862767"
       d="m 74.747083,51.622225 3.842747,5.225724 H 47.676636 l 3.5727,-5.332152 23.498332,0.106428 z" />
    <path
       id="path4966"
       style="opacity:0.87975;fill:none;stroke:url(#linearGradient2269);stroke-width:0.862767;stroke-linecap:round;stroke-linejoin:round"
       d="m 51.131798,51.567256 2.919865,-4.985735 17.668191,-0.0649 3.314701,5.049007 -23.902991,0.0016 z" />
    <path
       id="path2882"
       style="fill:url(#linearGradient3666);stroke:#002d27;stroke-width:1.32286;stroke-miterlimit:4;stroke-dasharray:none;stroke-opacity:1"
       d="m 58.965355,25.880956 -0.05393,10.230873 H 55.21768 l 7.81882,13.535048 7.818821,-13.535048 h -3.666732 l -0.05393,-10.230873 h -8.169331 z" />
  </g>
</svg>
