<?xml version="1.0" encoding="UTF-8" standalone="no"?>
<svg
   width="128"
   height="128"
   viewBox="0 0 33.865272 33.816705"
   version="1.1"
   id="svg12"
   sodipodi:docname="calamares_online.svg"
   inkscape:version="1.1.1 (3bf5ae0d25, 2021-09-20, custom)"
   inkscape:export-filename="/media/DATA/Development/RebornOS Labs/calamares-installer/calamares-core/scripts/archlinux_packaging/calamares-online.png"
   inkscape:export-xdpi="192"
   inkscape:export-ydpi="192"
   xmlns:inkscape="http://www.inkscape.org/namespaces/inkscape"
   xmlns:sodipodi="http://sodipodi.sourceforge.net/DTD/sodipodi-0.dtd"
   xmlns:xlink="http://www.w3.org/1999/xlink"
   xmlns="http://www.w3.org/2000/svg"
   xmlns:svg="http://www.w3.org/2000/svg"
   xmlns:rdf="http://www.w3.org/1999/02/22-rdf-syntax-ns#"
   xmlns:cc="http://creativecommons.org/ns#"
   xmlns:dc="http://purl.org/dc/elements/1.1/">
  <metadata
     id="metadata18">
    <rdf:RDF>
      <cc:Work
         rdf:about="">
        <dc:format>image/svg+xml</dc:format>
        <dc:type
           rdf:resource="http://purl.org/dc/dcmitype/StillImage" />
      </cc:Work>
    </rdf:RDF>
  </metadata>
  <defs
     id="defs16">
    <filter
       inkscape:collect="always"
       style="color-interpolation-filters:sRGB"
       id="filter854"
       x="-2.0938284e-05"
       width="1.0000419"
       y="-2.4182116e-05"
       height="1.0000484">
      <feGaussianBlur
         inkscape:collect="always"
         stdDeviation="0.000302881"
         id="feGaussianBlur856" />
    </filter>
    <filter
       inkscape:collect="always"
       style="color-interpolation-filters:sRGB"
       id="filter858"
       x="-8.791795e-06"
       width="1.0000176"
       y="-1.0152436e-05"
       height="1.0000203">
      <feGaussianBlur
         inkscape:collect="always"
         stdDeviation="0.000302881"
         id="feGaussianBlur860" />
    </filter>
    <filter
       inkscape:collect="always"
       style="color-interpolation-filters:sRGB"
       id="filter862"
       x="-5.3677719e-06"
       width="1.0000107"
       y="-6.1973708e-06"
       height="1.0000124">
      <feGaussianBlur
         inkscape:collect="always"
         stdDeviation="0.000302881"
         id="feGaussianBlur864" />
    </filter>
    <filter
       inkscape:collect="always"
       style="color-interpolation-filters:sRGB"
       id="filter866"
       x="-0.0059043947"
       width="1.0118088"
       y="-0.0059054231"
       height="1.0118108">
      <feGaussianBlur
         inkscape:collect="always"
         stdDeviation="0.000302881"
         id="feGaussianBlur868" />
    </filter>
    <linearGradient
       id="linearGradient6715"
       y2="609.51001"
       gradientUnits="userSpaceOnUse"
       x2="302.85999"
       gradientTransform="matrix(2.7744,0,0,1.9697,-1892.2,-872.89)"
       y1="366.64999"
       x1="302.85999">
      <stop
         id="stop5050"
         style="stop-color:#000000;stop-opacity:0"
         offset="0" />
      <stop
         id="stop5056"
         style="stop-color:#000000"
         offset=".5" />
      <stop
         id="stop5052"
         style="stop-color:#000000;stop-opacity:0"
         offset="1" />
    </linearGradient>
    <radialGradient
       id="radialGradient6717"
       xlink:href="#linearGradient5060"
       gradientUnits="userSpaceOnUse"
       cy="486.64999"
       cx="605.71002"
       gradientTransform="matrix(2.7744,0,0,1.9697,-1891.6,-872.89)"
       r="117.14" />
    <linearGradient
       id="linearGradient5060">
      <stop
         id="stop5062"
         style="stop-color:#000000"
         offset="0" />
      <stop
         id="stop5064"
         style="stop-color:#000000;stop-opacity:0"
         offset="1" />
    </linearGradient>
    <radialGradient
       id="radialGradient6719"
       xlink:href="#linearGradient5060"
       gradientUnits="userSpaceOnUse"
       cy="486.64999"
       cx="605.71002"
       gradientTransform="matrix(-2.7744,0,0,1.9697,112.76,-872.89)"
       r="117.14" />
    <linearGradient
       id="linearGradient2288"
       y2="22.584999"
       gradientUnits="userSpaceOnUse"
       x2="24.99"
       gradientTransform="matrix(0.86276722,0,0,0.86276722,42.803644,37.441592)"
       y1="34.005001"
       x1="24.99">
      <stop
         id="stop4212"
         style="stop-color:#eaba6f"
         offset="0" />
      <stop
         id="stop4214"
         style="stop-color:#b97a1b"
         offset="1" />
    </linearGradient>
    <linearGradient
       id="linearGradient2285"
       y2="47.388"
       gradientUnits="userSpaceOnUse"
       x2="30.014999"
       gradientTransform="matrix(0.86276722,0,0,0.86276722,42.803644,37.441592)"
       y1="19.912001"
       x1="18.707001">
      <stop
         id="stop4224"
         style="stop-color:#ffffff"
         offset="0" />
      <stop
         id="stop4226"
         style="stop-color:#ffffff;stop-opacity:.68639"
         offset="1" />
    </linearGradient>
    <linearGradient
       id="linearGradient2280"
       y2="12.637"
       gradientUnits="userSpaceOnUse"
       x2="34.194"
       gradientTransform="matrix(0.86276722,0,0,0.89657853,42.803644,37.406506)"
       y1="12.637"
       x1="16.149">
      <stop
         id="stop4184"
         style="stop-color:#a36d18"
         offset="0" />
      <stop
         id="stop4186"
         style="stop-color:#d79020"
         offset="1" />
    </linearGradient>
    <linearGradient
       id="linearGradient2282"
       y2="16.021"
       gradientUnits="userSpaceOnUse"
       x2="22.072001"
       gradientTransform="matrix(0.86276722,0,0,0.86276722,42.803644,37.441592)"
       y1="9.7577"
       x1="21.907">
      <stop
         id="stop4989"
         style="stop-color:#a0670c"
         offset="0" />
      <stop
         id="stop4991"
         style="stop-color:#a0670c;stop-opacity:0"
         offset="1" />
    </linearGradient>
    <linearGradient
       id="linearGradient2277"
       y2="16.17"
       gradientUnits="userSpaceOnUse"
       x2="24.118999"
       gradientTransform="matrix(0.86276722,0,0,0.85098999,42.803644,37.715264)"
       y1="24.721001"
       x1="25.381001">
      <stop
         id="stop4194"
         style="stop-color:#e9b96e"
         offset="0" />
      <stop
         id="stop4196"
         style="stop-color:#f1d19e"
         offset="1" />
    </linearGradient>
    <linearGradient
       id="linearGradient2274"
       y2="15.268"
       gradientUnits="userSpaceOnUse"
       x2="47.066002"
       gradientTransform="matrix(0.86276722,0,0,0.86276722,42.803644,37.441592)"
       y1="14.662"
       x1="36.289001">
      <stop
         id="stop4997"
         style="stop-color:#de9523"
         offset="0" />
      <stop
         id="stop4999"
         style="stop-color:#a36d18"
         offset="1" />
    </linearGradient>
    <linearGradient
       id="linearGradient2269"
       y2="12.334"
       gradientUnits="userSpaceOnUse"
       x2="17.695999"
       gradientTransform="matrix(0.86276722,0,0,0.86276722,42.803644,37.441592)"
       y1="13.445"
       x1="30.062">
      <stop
         id="stop4981"
         style="stop-color:#fbf0e0"
         offset="0" />
      <stop
         id="stop4983"
         style="stop-color:#f0ce99"
         offset="1" />
    </linearGradient>
    <linearGradient
       id="linearGradient3666"
       y2="11.943"
       gradientUnits="userSpaceOnUse"
       x2="28.921"
       gradientTransform="matrix(0.86276722,0,0,0.86276722,42.932176,37.441592)"
       y1="-13.9"
       x1="13.74">
      <stop
         id="stop3662"
         style="stop-color:#00ff07"
         offset="0" />
      <stop
         id="stop3664"
         style="stop-color:#0d6203"
         offset="1" />
    </linearGradient>
    <linearGradient
       id="linearGradient3280"
       y2="521.38"
       xlink:href="#linearGradient5241"
       spreadMethod="reflect"
       gradientUnits="userSpaceOnUse"
       x2="-3.5969"
       gradientTransform="translate(235.87,-28.363)"
       y1="514.96997"
       x1="-73.263" />
    <linearGradient
       id="linearGradient5241">
      <stop
         id="stop5243"
         stop-color="#7c7c7c"
         offset="0" />
      <stop
         id="stop5245"
         stop-color="#c6c6c6"
         offset="1" />
    </linearGradient>
    <linearGradient
       id="linearGradient3282"
       y2="521.38"
       xlink:href="#linearGradient5241"
       spreadMethod="reflect"
       gradientUnits="userSpaceOnUse"
       x2="-3.5969"
       gradientTransform="translate(241.36,-29.278)"
       y1="514.96997"
       x1="-73.263" />
    <linearGradient
       id="linearGradient3284"
       y2="368.66"
       spreadMethod="reflect"
       gradientUnits="userSpaceOnUse"
       x2="213.74001"
       y1="473.79999"
       x1="390.20001">
      <stop
         id="stop7187"
         stop-color="#6f6f6f"
         offset="0" />
      <stop
         id="stop7189"
         stop-color="#f5f5f5"
         offset="1" />
    </linearGradient>
    <clipPath
       id="clipPath4248"
       clipPathUnits="userSpaceOnUse">
      <path
         id="path4250"
         opacity="0.79008"
         d="M 372.84,260.94 C 255.35,260.94 160,356.28 160,473.78 c 0,117.5 95.35,212.88 212.84,212.88 117.5,0 212.88,-95.38 212.88,-212.88 0,-117.5 -95.38,-212.84 -212.88,-212.84 z m 0,160 c 29.18,0 52.88,23.66 52.88,52.84 0,29.18 -23.7,52.88 -52.88,52.88 -29.17,0 -52.84,-23.7 -52.84,-52.88 0,-29.18 23.67,-52.84 52.84,-52.84 z"
         style="color:#000000"
         fill="#666666" />
    </clipPath>
    <clipPath
       id="clipPath4244"
       clipPathUnits="userSpaceOnUse">
      <path
         id="path4246"
         opacity="0.79008"
         d="M 372.84,260.94 C 255.35,260.94 160,356.28 160,473.78 c 0,117.5 95.35,212.88 212.84,212.88 117.5,0 212.88,-95.38 212.88,-212.88 0,-117.5 -95.38,-212.84 -212.88,-212.84 z m 0,160 c 29.18,0 52.88,23.66 52.88,52.84 0,29.18 -23.7,52.88 -52.88,52.88 -29.17,0 -52.84,-23.7 -52.84,-52.88 0,-29.18 23.67,-52.84 52.84,-52.84 z"
         style="color:#000000"
         fill="#666666" />
    </clipPath>
    <filter
       id="filter11193"
       y="-0.10036094"
       width="1.4976526"
       height="1.2007219"
       x="-0.24882631">
      <feGaussianBlur
         id="feGaussianBlur11195"
         stdDeviation="18.143585" />
    </filter>
    <clipPath
       id="clipPath4240"
       clipPathUnits="userSpaceOnUse">
      <path
         id="path4242"
         opacity="0.79008"
         d="M 372.84,260.94 C 255.35,260.94 160,356.28 160,473.78 c 0,117.5 95.35,212.88 212.84,212.88 117.5,0 212.88,-95.38 212.88,-212.88 0,-117.5 -95.38,-212.84 -212.88,-212.84 z m 0,160 c 29.18,0 52.88,23.66 52.88,52.84 0,29.18 -23.7,52.88 -52.88,52.88 -29.17,0 -52.84,-23.7 -52.84,-52.88 0,-29.18 23.67,-52.84 52.84,-52.84 z"
         style="color:#000000"
         fill="#666666" />
    </clipPath>
    <filter
       id="filter11189"
       y="-0.10513703"
       width="1.3612761"
       height="1.2102741"
       x="-0.18063803">
      <feGaussianBlur
         id="feGaussianBlur11191"
         stdDeviation="18.143585" />
    </filter>
    <clipPath
       id="clipPath4236"
       clipPathUnits="userSpaceOnUse">
      <path
         id="path4238"
         opacity="0.79008"
         d="M 372.84,260.94 C 255.35,260.94 160,356.28 160,473.78 c 0,117.5 95.35,212.88 212.84,212.88 117.5,0 212.88,-95.38 212.88,-212.88 0,-117.5 -95.38,-212.84 -212.88,-212.84 z m 0,160 c 29.18,0 52.88,23.66 52.88,52.84 0,29.18 -23.7,52.88 -52.88,52.88 -29.17,0 -52.84,-23.7 -52.84,-52.88 0,-29.18 23.67,-52.84 52.84,-52.84 z"
         style="color:#000000"
         fill="#666666" />
    </clipPath>
    <filter
       id="filter11185"
       y="-0.11367568"
       width="1.2914535"
       height="1.2273514"
       x="-0.14572673">
      <feGaussianBlur
         id="feGaussianBlur11187"
         stdDeviation="18.143585" />
    </filter>
    <clipPath
       id="clipPath4232"
       clipPathUnits="userSpaceOnUse">
      <path
         id="path4234"
         opacity="0.79008"
         d="M 372.84,260.94 C 255.35,260.94 160,356.28 160,473.78 c 0,117.5 95.35,212.88 212.84,212.88 117.5,0 212.88,-95.38 212.88,-212.88 0,-117.5 -95.38,-212.84 -212.88,-212.84 z m 0,160 c 29.18,0 52.88,23.66 52.88,52.84 0,29.18 -23.7,52.88 -52.88,52.88 -29.17,0 -52.84,-23.7 -52.84,-52.88 0,-29.18 23.67,-52.84 52.84,-52.84 z"
         style="color:#000000"
         fill="#666666" />
    </clipPath>
    <filter
       id="filter11181"
       y="-0.12581146"
       width="1.2462652"
       height="1.2516229"
       x="-0.12313258">
      <feGaussianBlur
         id="feGaussianBlur11183"
         stdDeviation="18.143585" />
    </filter>
    <radialGradient
       id="radialGradient4120"
       gradientUnits="userSpaceOnUse"
       cy="63.965"
       cx="15.116"
       gradientTransform="scale(1.644,0.60828)"
       r="12.289">
      <stop
         id="stop4116"
         offset="0" />
      <stop
         id="stop4118"
         stop-opacity="0"
         offset="1" />
    </radialGradient>
    <radialGradient
       id="radialGradient3968"
       gradientUnits="userSpaceOnUse"
       cy="15.716"
       cx="18.247999"
       gradientTransform="scale(0.99999,1)"
       r="29.993">
      <stop
         id="stop3964"
         stop-color="#d3e9ff"
         offset="0" />
      <stop
         id="stop4134"
         stop-color="#d3e9ff"
         offset=".15517" />
      <stop
         id="stop4346"
         stop-color="#4074ae"
         offset=".75" />
      <stop
         id="stop3966"
         stop-color="#36486c"
         offset="1" />
    </radialGradient>
    <radialGradient
       id="radialGradient4132"
       gradientUnits="userSpaceOnUse"
       cy="12.142"
       cx="15.601"
       gradientTransform="scale(0.99999,1)"
       r="43.527">
      <stop
         id="stop4128"
         stop-color="#fff"
         offset="0" />
      <stop
         id="stop4130"
         stop-color="#fff"
         stop-opacity=".16495"
         offset="1" />
    </radialGradient>
    <linearGradient
       id="linearGradient6007"
       x1="-25.176001"
       xlink:href="#linearGradient6001"
       gradientUnits="userSpaceOnUse"
       x2="-22.252001"
       y1="30.056999"
       y2="21.042" />
    <linearGradient
       id="linearGradient6001">
      <stop
         id="stop6003"
         stop-color="#fff"
         offset="0" />
      <stop
         id="stop6005"
         stop-color="#fff"
         stop-opacity="0"
         offset="1" />
    </linearGradient>
    <linearGradient
       id="linearGradient6011"
       x1="-25.176001"
       xlink:href="#linearGradient6001"
       gradientUnits="userSpaceOnUse"
       x2="-22.114"
       y1="30.056999"
       y2="22.662001" />
    <radialGradient
       id="radialGradient5983"
       cx="12.071"
       xlink:href="#linearGradient6001"
       gradientUnits="userSpaceOnUse"
       cy="12.493"
       r="6.7175002" />
    <linearGradient
       id="linearGradient6015"
       x1="-22.823"
       xlink:href="#linearGradient6001"
       gradientUnits="userSpaceOnUse"
       x2="-22.114"
       y1="28.337999"
       y2="22.662001" />
    <linearGradient
       id="linearGradient6019"
       x1="-21.659"
       xlink:href="#linearGradient6001"
       gradientUnits="userSpaceOnUse"
       x2="-21.962"
       y1="15.649"
       y2="21.336" />
    <radialGradient
       id="radialGradient944"
       cx="12.071"
       xlink:href="#linearGradient6001"
       gradientUnits="userSpaceOnUse"
       cy="12.493"
       r="6.7175002" />
    <radialGradient
       id="radialGradient952"
       cx="12.071"
       xlink:href="#linearGradient6001"
       gradientUnits="userSpaceOnUse"
       cy="12.493"
       r="6.7175002" />
    <radialGradient
       id="radialGradient960"
       cx="12.071"
       xlink:href="#linearGradient6001"
       gradientUnits="userSpaceOnUse"
       cy="12.493"
       r="6.7175002" />
    <radialGradient
       inkscape:collect="always"
       xlink:href="#linearGradient6001"
       id="radialGradient1023"
       gradientUnits="userSpaceOnUse"
       cx="12.071"
       cy="12.493"
       r="6.7175002" />
    <radialGradient
       inkscape:collect="always"
       xlink:href="#linearGradient6001"
       id="radialGradient1025"
       gradientUnits="userSpaceOnUse"
       cx="12.071"
       cy="12.493"
       r="6.7175002" />
    <radialGradient
       inkscape:collect="always"
       xlink:href="#linearGradient6001"
       id="radialGradient1027"
       gradientUnits="userSpaceOnUse"
       cx="12.071"
       cy="12.493"
       r="6.7175002" />
  </defs>
  <sodipodi:namedview
     pagecolor="#ffffff"
     bordercolor="#666666"
     borderopacity="1"
     objecttolerance="10"
     gridtolerance="10"
     guidetolerance="10"
     inkscape:pageopacity="0"
     inkscape:pageshadow="2"
     inkscape:window-width="1920"
     inkscape:window-height="995"
     id="namedview14"
     showgrid="false"
     inkscape:zoom="5.2046588"
     inkscape:cx="52.549074"
     inkscape:cy="62.155852"
     inkscape:window-x="0"
     inkscape:window-y="0"
     inkscape:window-maximized="1"
     inkscape:current-layer="svg12"
     inkscape:document-rotation="0"
     fit-margin-top="0"
     fit-margin-left="0"
     fit-margin-right="0"
     fit-margin-bottom="0"
     inkscape:pagecheckerboard="0" />
  <g
     id="g3913"
     transform="matrix(0.40505329,0,0,0.40505329,0,2.0791246)">
    <g
       id="g1036"
       transform="translate(0.48714649,0.47293766)">
      <path
         d="m 112.236,129.173 h -73.4 l -36.7,-63.565 36.7,-63.56 h 73.4 l 36.7,63.563 z"
         fill="#1a1a1a"
         stroke="#cccccc"
         stroke-width="1.5"
         id="path4"
         style="filter:url(#filter866)"
         transform="matrix(0.5625,0,0,0.5625,-1.2010911,-1.2656088)" />
      <path
         d="m 41.682,6.974 -15.332,26.542 15.149999,8.747 10.28,-17.797 H 72.332997 V 6.972 Z m 37.056997,0 V 24.468 H 99.291999 L 109.572,42.273 124.722,33.526 109.392,6.974 Z m 49.187003,32.098 -15.15,8.747 10.273,17.8 -10.28,17.807 15.15,8.747 15.33,-26.552 z m -104.778,0 L 7.827,65.6 23.157,92.152 38.306999,83.405 28.027,65.598 38.299999,47.798 Z M 41.507999,88.972 26.36,97.71 41.682,124.247 H 72.334998 V 106.753 H 51.784999 Z m 68.054001,0 -10.273,17.8 H 78.74 v 17.494 h 30.655 l 15.32,-26.537 z"
         fill="#277748"
         id="path6"
         style="fill:#006680;fill-opacity:1;stroke-width:1;filter:url(#filter862)"
         transform="matrix(0.5625,0,0,0.5625,-1.2010911,-1.2656088)" />
      <path
         d="m 54.87,29.81 -8.747,15.132 13.08,7.552 4.38,-7.583 H 72.33 V 29.81 Z m 23.87,0 v 15.103 h 8.747 l 4.38,7.583 13.08,-7.552 L 96.2,29.812 Z M 42.928,50.49 34.2,65.608 l 8.747,15.132 13.08,-7.552 -4.38,-7.583 4.37,-7.566 z m 65.216,0 -13.08,7.552 4.37,7.566 -4.38,7.583 13.08,7.552 8.747,-15.132 z M 59.22,78.738 46.14,86.29 54.868,101.41 H 72.334 V 86.305 h -8.747 z m 32.635,0 -4.37,7.566 H 78.74 v 15.103 h 17.466 l 8.728,-15.12 z"
         fill="#649f4b"
         id="path8"
         style="fill:#0086a8;fill-opacity:1;filter:url(#filter858)"
         transform="matrix(0.5625,0,0,0.5625,-1.2010911,-1.2656088)" />
      <path
         d="M 84.216,80.64 H 66.86 L 58.18,65.61 66.86,50.58 h 17.357 l 8.68,15.03 z"
         fill="#656565"
         id="path10"
         style="fill:#00acd6;fill-opacity:1;filter:url(#filter854)"
         transform="matrix(0.5625,0,0,0.5625,-1.2010911,-1.2656088)" />
    </g>
    <g
       id="g6707"
       transform="matrix(0.01816524,0,0,0.01800385,79.558557,67.987552)">
      <rect
         id="rect6709"
         style="color:#000000;opacity:0.40206;fill:url(#linearGradient6715)"
         height="478.35999"
         width="1339.6"
         y="-150.7"
         x="-1559.3" />
      <path
         id="path6711"
         style="color:#000000;opacity:0.40206;fill:url(#radialGradient6717)"
         d="m -219.62,-150.68 v 478.33 c 142.87,0.90045 345.4,-107.17 345.4,-239.2 0,-132.03 -159.44,-239.13 -345.4,-239.13 z" />
      <path
         id="path6713"
         style="color:#000000;opacity:0.40206;fill:url(#radialGradient6719)"
         d="m -1559.3,-150.68 v 478.33 c -142.87,0.90045 -345.4,-107.17 -345.4,-239.2 0,-132.03 159.44,-239.13 345.4,-239.13 z" />
    </g>
    <rect
       id="rect3115"
       style="color:#000000;display:block;fill:url(#linearGradient2288);stroke:#a0670c;stroke-width:0.862767"
       rx="2.0914826"
       ry="2.0658696"
       height="19.940599"
       width="27.589371"
       y="50.621101"
       x="49.241829" />
    <rect
       id="rect4220"
       style="color:#000000;display:block;opacity:0.48101;fill:none;stroke:url(#linearGradient2285);stroke-width:0.862767"
       rx="1.1083933"
       ry="1.1083933"
       height="18.182787"
       width="25.714603"
       y="51.45615"
       x="50.136524" />
    <path
       id="path4162"
       style="fill:url(#linearGradient2280);fill-rule:evenodd;stroke:url(#linearGradient2282);stroke-width:0.862767"
       d="m 50.37043,51.718127 4.356992,-5.876221 16.215626,-0.08715 4.503652,5.844058 -25.077206,0.119269 z" />
    <path
       id="path4164"
       style="color:#000000;display:block;fill:url(#linearGradient2277);stroke:#a0670c;stroke-width:0.862767;stroke-linecap:round;stroke-linejoin:round"
       d="m 75.827735,51.527492 4.480261,6.207316 H 46.221849 l 4.024025,-6.211643 25.582446,0.0042 z" />
    <path
       id="path4178"
       style="color:#000000;display:block;fill:url(#linearGradient2274);stroke:#a0670c;stroke-width:0.862767;stroke-linecap:round;stroke-linejoin:round"
       d="m 71.14491,45.737116 4.040281,5.972356 7.79391,3.7831 -7.000964,-7.689586 z" />
    <path
       id="path4180"
       style="color:#000000;display:block;fill:#f8e8cf;stroke:#a0670c;stroke-width:0.862767;stroke-linecap:round;stroke-linejoin:round"
       d="m 54.552693,45.823662 -3.430134,5.797978 -7.88104,3.7831 7.000963,-7.689587 4.310328,-1.891491 z" />
    <path
       id="path4954"
       style="color:#000000;display:block;fill:none;stroke:#f4e3ca;stroke-width:0.862767"
       d="m 74.747083,51.622225 3.842747,5.225724 H 47.676636 l 3.5727,-5.332152 23.498332,0.106428 z" />
    <path
       id="path4966"
       style="opacity:0.87975;fill:none;stroke:url(#linearGradient2269);stroke-width:0.862767;stroke-linecap:round;stroke-linejoin:round"
       d="m 51.131798,51.567256 2.919865,-4.985735 17.668191,-0.0649 3.314701,5.049007 -23.902991,0.0016 z" />
    <path
       id="path2882"
       style="fill:url(#linearGradient3666);stroke:#002d27;stroke-width:1.32286;stroke-miterlimit:4;stroke-dasharray:none;stroke-opacity:1"
       d="m 58.965355,25.880956 -0.05393,10.230873 H 55.21768 l 7.81882,13.535048 7.818821,-13.535048 h -3.666732 l -0.05393,-10.230873 h -8.169331 z" />
  </g>
  <g
     id="layer1-3"
     transform="matrix(0.34454151,0,0,0.34454151,17.093327,-1.1337259)">
    <path
       id="path4112-6"
       transform="matrix(1,0,0,1.2432,0,-10.272)"
       fill="url(#radialGradient4120)"
       d="m 45.053,38.909 a 20.203,7.4751 0 1 1 -40.406,0 20.203,7.4751 0 1 1 40.406,0 z"
       style="fill:url(#radialGradient4120)" />
    <path
       id="path3214"
       stroke="#39396c"
       fill="url(#radialGradient3968)"
       d="m 43.96,23.485 c 0,10.71 -8.682,19.392 -19.39,19.392 -10.71,0 -19.391,-8.682 -19.391,-19.392 -3e-4,-10.709 8.681,-19.39 19.391,-19.39 10.708,2e-4 19.39,8.681 19.39,19.39 z"
       style="fill:url(#radialGradient3968)" />
    <g
       id="g4136"
       transform="matrix(0.98237,0,0,0.98237,0.12108,0.23291)"
       fill="#204a87"
       fill-opacity="0.71345">
      <g
         id="g4138">
        <g
           id="g4142"
           fill="#204a87">
          <path
             id="path4144"
             d="m 44.071,20.714 -0.545,0.618 c -0.334,-0.394 -0.709,-0.725 -1.089,-1.071 l -0.836,0.123 -0.764,-0.863 v 1.068 l 0.654,0.495 0.436,0.494 0.582,-0.658 c 0.146,0.274 0.291,0.548 0.436,0.823 v 0.822 l -0.655,0.74 -1.199,0.823 -0.908,0.907 -0.582,-0.661 0.291,-0.74 -0.582,-0.658 -0.981,-2.098 -0.836,-0.945 -0.219,0.246 0.328,1.194 0.618,0.699 c 0.352,1.017 0.701,1.99 1.164,2.963 0.718,0 1.394,-0.077 2.107,-0.166 v 0.576 l -0.872,2.139 -0.8,0.904 -0.654,1.401 v 2.303 l 0.219,0.906 -0.364,0.41 -0.8,0.494 -0.836,0.699 0.691,0.782 -0.945,0.824 0.182,0.533 -1.418,1.606 h -0.945 l -0.8,0.494 H 33.64 v -0.659 l -0.217,-1.318 c -0.281,-0.826 -0.574,-1.647 -0.872,-2.467 0,-0.605 0.036,-1.205 0.072,-1.81 l 0.364,-0.823 -0.509,-0.988 0.037,-1.357 -0.692,-0.782 0.346,-1.13 -0.563,-0.639 h -0.982 l -0.327,-0.37 -0.981,0.618 -0.4,-0.454 -0.909,0.782 c -0.617,-0.7 -1.235,-1.399 -1.854,-2.098 l -0.726,-1.729 0.654,-0.986 -0.363,-0.411 0.799,-1.894 c 0.656,-0.816 1.341,-1.599 2.035,-2.385 l 1.236,-0.329 1.381,-0.165 0.945,0.248 1.345,1.356 0.473,-0.534 0.653,-0.082 1.236,0.411 h 0.946 l 0.654,-0.576 0.291,-0.411 -0.655,-0.412 -1.091,-0.082 C 35.663,17.045 35.382,16.603 35.022,16.23 l -0.364,0.164 -0.145,1.07 -0.655,-0.74 -0.144,-0.824 -0.727,-0.574 h -0.292 l 0.728,0.822 -0.291,0.74 -0.581,0.164 0.363,-0.74 -0.655,-0.328 -0.581,-0.658 -1.091,0.246 -0.145,0.328 -0.654,0.412 -0.363,0.906 -0.909,0.452 -0.4,-0.452 H 27.68 v -1.482 l 0.946,-0.494 h 0.726 l -0.146,-0.575 -0.58,-0.576 0.98,-0.206 0.545,-0.617 0.436,-0.741 h 0.801 l -0.219,-0.575 0.509,-0.329 v 0.658 l 1.09,0.246 1.09,-0.904 0.073,-0.412 0.945,-0.658 c -0.342,0.043 -0.684,0.074 -1.018,0.165 V 9.9766 l 0.363,-0.8228 h -0.363 l -0.798,0.7402 -0.219,0.412 0.219,0.576 -0.365,0.987 -0.581,-0.329 -0.508,-0.576 -0.8,0.576 -0.291,-1.316 1.381,-0.9052 V 8.8247 l 0.872,-0.5757 1.381,-0.3296 0.946,0.3296 1.744,0.3291 -0.436,0.4932 h -0.945 l 0.945,0.9877 0.727,-0.8227 0.221,-0.3618 c 0,0 2.787,2.4975 4.379,5.2305 1.593,2.733 2.341,5.955 2.341,6.609 z"
             fill="#204a87" />
        </g>
      </g>
      <g
         id="g4146">
        <g
           id="g4150"
           fill="#204a87">
          <path
             id="path4152"
             d="M 26.07,9.2363 25.997,9.7295 26.507,10.059 27.378,9.4829 26.942,8.9892 26.36,9.3188 26.07,9.2363"
             fill="#204a87" />
        </g>
      </g>
      <g
         id="g4154">
        <g
           id="g4158"
           fill="#204a87">
          <path
             id="path4160"
             d="M 26.87,5.8633 24.98,5.1226 22.8,5.3692 20.109,6.1094 19.601,6.6035 21.272,7.7549 V 8.4131 L 20.618,9.0713 21.491,10.8 22.071,10.47 22.8,9.3188 C 23.923,8.9716 24.93,8.5781 25.997,8.0844 L 26.87,5.8632"
             fill="#204a87" />
        </g>
      </g>
      <g
         id="g4162">
        <g
           id="g4166"
           fill="#204a87">
          <path
             id="path4168"
             d="m 28.833,12.775 -0.291,-0.741 -0.51,0.165 0.147,0.904 0.654,-0.328"
             fill="#204a87" />
        </g>
      </g>
      <g
         id="g4170">
        <g
           id="g4174"
           fill="#204a87">
          <path
             id="path4176"
             d="m 29.123,12.609 -0.145,0.988 0.799,-0.165 0.581,-0.575 -0.508,-0.494 c -0.171,-0.455 -0.368,-0.88 -0.582,-1.317 h -0.435 v 0.494 l 0.29,0.329 v 0.74"
             fill="#204a87" />
        </g>
      </g>
      <g
         id="g4178">
        <g
           id="g4182"
           fill="#204a87">
          <path
             id="path4184"
             d="m 18.365,28.242 -0.582,-1.152 -1.09,-0.247 -0.582,-1.562 -1.453,0.164 -1.236,-0.904 -1.309,1.151 v 0.182 C 11.717,25.759 11.23,25.744 10.878,25.527 L 10.587,24.705 V 23.799 L 9.7148,23.881 C 9.7876,23.305 9.8598,22.73 9.9331,22.154 H 9.4238 L 8.9155,22.812 8.4062,23.058 7.6791,22.648 7.6063,21.743 7.7518,20.755 8.8426,19.933 h 0.8721 l 0.145,-0.494 1.0903,0.246 0.8,0.988 0.145,-1.646 1.382,-1.152 0.508,-1.234 1.018,-0.411 0.581,-0.822 1.309,-0.248 0.654,-0.987 h -1.963 l 1.236,-0.576 h 0.872 l 1.236,-0.412 0.146,-0.492 -0.437,-0.412 -0.509,-0.165 0.146,-0.494 -0.363,-0.74 -0.873,0.328 0.146,-0.657 -1.018,-0.5765 -0.799,1.3975 0.072,0.494 -0.799,0.331 -0.51,1.069 -0.218,-0.987 -1.381,-0.577 -0.218,-0.74 1.817,-1.0701 0.8,-0.7402 0.073,-0.9048 -0.436,-0.2471 -0.582,-0.0825 -0.363,0.9053 c 0,0 -0.608,0.1191 -0.764,0.1577 -1.996,1.8397 -6.0294,5.8097 -6.9664,13.306 0.0371,0.174 0.6792,1.182 0.6792,1.182 l 1.5264,0.904 1.5264,0.412 0.6544,0.824 1.018,0.74 0.581,-0.082 0.436,0.196 v 0.133 l -0.581,1.563 -0.437,0.658 0.146,0.33 -0.363,1.233 1.308,2.386 1.308,1.153 0.582,0.822 -0.073,1.728 0.437,0.987 -0.437,1.892 c 0,0 -0.034,-0.011 0.022,0.178 0.056,0.19 2.329,1.451 2.473,1.344 0.144,-0.109 0.267,-0.205 0.267,-0.205 l -0.145,-0.41 0.581,-0.577 0.219,-0.576 0.945,-0.33 0.727,-1.81 -0.218,-0.493 0.508,-0.74 1.09,-0.248 0.582,-1.316 -0.145,-1.645 0.872,-1.234 0.145,-1.235 c -1.193,-0.591 -2.376,-1.201 -3.561,-1.81"
             fill="#204a87" />
        </g>
      </g>
      <g
         id="g4186">
        <g
           id="g4190"
           fill="#204a87">
          <path
             id="path4192"
             d="m 16.766,9.5649 0.726,0.4941 h 0.582 V 9.4829 L 17.348,9.1538 16.766,9.5649"
             fill="#204a87" />
        </g>
      </g>
      <g
         id="g4194">
        <g
           id="g4198"
           fill="#204a87">
          <path
             id="path4200"
             d="M 14.876,8.9072 14.512,9.812 h 0.727 L 15.603,8.9892 C 15.917,8.7675 16.229,8.5444 16.548,8.331 l 0.727,0.2471 c 0.484,0.3291 0.969,0.6582 1.454,0.9868 L 19.456,8.9072 18.656,8.5781 18.292,7.8374 16.911,7.6728 16.838,7.2612 16.184,7.4262 15.894,8.002 15.53,7.2613 l -0.145,0.3291 0.073,0.8228 -0.582,0.494"
             fill="#204a87" />
        </g>
      </g>
      <g
         id="g4202" />
      <g
         id="g4212" />
      <g
         id="g4222">
        <g
           id="g4226"
           fill="#204a87">
          <path
             id="path4228"
             d="M 17.492,6.8496 17.856,6.521 18.583,6.3564 C 19.081,6.1142 19.581,5.9511 20.11,5.7802 l -0.29,-0.4937 -0.939,0.1348 -0.443,0.4419 -0.731,0.106 -0.65,0.3052 -0.316,0.1528 -0.193,0.2583 0.944,0.1641"
             fill="#204a87" />
        </g>
      </g>
      <g
         id="g4230">
        <g
           id="g4234"
           fill="#204a87">
          <path
             id="path4236"
             d="m 18.728,14.666 0.437,-0.658 -0.655,-0.493 0.218,1.151"
             fill="#204a87" />
        </g>
      </g>
    </g>
    <path
       id="path4122"
       opacity="0.3956"
       stroke="url(#radialGradient4132)"
       fill="none"
       d="m 42.975,23.486 c 0,10.165 -8.241,18.406 -18.406,18.406 C 14.404,41.892 6.163,33.651 6.163,23.486 6.1634,13.32 14.404,5.08 24.569,5.08 34.734,5.0799 42.975,13.32 42.975,23.486 Z"
       style="stroke:url(#radialGradient4132)" />
    <path
       id="path5991"
       stroke-linejoin="round"
       style="color:#000000;stroke:url(#linearGradient6007)"
       d="m -2.8284,21.042 a 15.7335,9.4579006 0 1 1 -31.467,0 15.7335,9.4579006 0 1 1 31.467,0 z"
       transform="matrix(1.131,0.6131,-0.47656,0.87914,54.091,16.044)"
       stroke="url(#linearGradient6007)"
       stroke-linecap="round"
       stroke-width="0.88164"
       fill="none" />
    <path
       id="path6009"
       stroke-linejoin="round"
       style="color:#000000;stroke:url(#linearGradient6011)"
       d="m -2.8284,21.042 a 15.7335,9.4579006 0 1 1 -31.467,0 15.7335,9.4579006 0 1 1 31.467,0 z"
       transform="matrix(0.93933,-0.87909,0.68331,0.73013,32.314,-4.4516)"
       stroke="url(#linearGradient6011)"
       stroke-linecap="round"
       stroke-width="0.88164"
       fill="none" />
    <g
       id="g4933"
       transform="matrix(-1.0458,0.76725,0.76725,1.0458,35.617,-22.144)"
       fill-rule="evenodd">
      <path
         id="path4935"
         style="color:#000000;fill:url(#radialGradient1023)"
         transform="translate(14.95,22.93)"
         fill="url(#radialGradient5983)"
         d="m 18.789,12.493 a 6.7175,6.7175 0 1 1 -13.435,0 6.7175,6.7175 0 1 1 13.435,0 z" />
      <path
         id="path4937"
         style="color:#000000"
         transform="matrix(0.30827,0,0,0.30827,23.3,31.572)"
         fill="#ffffff"
         d="m 18.789,12.493 a 6.7175,6.7175 0 1 1 -13.435,0 6.7175,6.7175 0 1 1 13.435,0 z" />
    </g>
    <path
       id="path6013"
       stroke-linejoin="round"
       style="color:#000000;stroke:url(#linearGradient6015)"
       d="m -2.8284,21.042 a 15.7335,9.4579006 0 1 1 -31.467,0 15.7335,9.4579006 0 1 1 31.467,0 z"
       transform="matrix(-1.2803,-0.12616,0.098062,-0.99518,-2.4051,40.524)"
       stroke="url(#linearGradient6015)"
       stroke-linecap="round"
       stroke-width="0.88164"
       fill="none" />
    <path
       id="path6017"
       stroke-linejoin="round"
       style="color:#000000;stroke:url(#linearGradient6019)"
       d="m -2.8284,21.042 a 15.7335,9.4579006 0 1 1 -31.467,0 15.7335,9.4579006 0 1 1 31.467,0 z"
       transform="matrix(0.91787,-0.85898,0.6677,0.71343,27.633,-6.9091)"
       stroke="url(#linearGradient6019)"
       stroke-linecap="round"
       stroke-width="0.90226"
       fill="none" />
    <g
       id="g5075"
       transform="matrix(-0.80628,0.59154,0.59154,0.80628,12.386,-18.029)"
       fill-rule="evenodd">
      <path
         id="path5077"
         style="color:#000000;fill:url(#radialGradient1025)"
         transform="translate(14.95,22.93)"
         fill="url(#radialGradient5983)"
         d="m 18.789,12.493 a 6.7175,6.7175 0 1 1 -13.435,0 6.7175,6.7175 0 1 1 13.435,0 z" />
      <path
         id="path5079"
         style="color:#000000"
         transform="matrix(0.30827,0,0,0.30827,23.3,31.572)"
         fill="#ffffff"
         d="m 18.789,12.493 a 6.7175,6.7175 0 1 1 -13.435,0 6.7175,6.7175 0 1 1 13.435,0 z" />
    </g>
    <g
       id="g4945"
       transform="matrix(-0.80628,0.59154,0.59154,0.80628,13.499,-31.5)"
       fill-rule="evenodd">
      <path
         id="path4947"
         style="color:#000000;fill:url(#radialGradient1027)"
         transform="translate(14.95,22.93)"
         fill="url(#radialGradient5983)"
         d="m 18.789,12.493 a 6.7175,6.7175 0 1 1 -13.435,0 6.7175,6.7175 0 1 1 13.435,0 z" />
      <path
         id="path4949"
         style="color:#000000"
         transform="matrix(0.30827,0,0,0.30827,23.3,31.572)"
         fill="#ffffff"
         d="m 18.789,12.493 a 6.7175,6.7175 0 1 1 -13.435,0 6.7175,6.7175 0 1 1 13.435,0 z" />
    </g>
    <g
       id="g4939"
       transform="matrix(-0.87023,0.63857,0.63846,0.87038,25.205,-35.313)"
       fill-rule="evenodd">
      <path
         id="path4941"
         style="color:#000000;fill:url(#radialGradient5983)"
         transform="translate(14.95,22.93)"
         fill="url(#radialGradient5983)"
         d="m 18.789,12.493 a 6.7175,6.7175 0 1 1 -13.435,0 6.7175,6.7175 0 1 1 13.435,0 z" />
      <path
         id="path4943"
         style="color:#000000"
         transform="matrix(0.30827,0,0,0.30827,23.3,31.572)"
         fill="#ffffff"
         d="m 18.789,12.493 a 6.7175,6.7175 0 1 1 -13.435,0 6.7175,6.7175 0 1 1 13.435,0 z" />
    </g>
  </g>
</svg>
