<?xml version="1.0" encoding="UTF-8" standalone="no"?>
<svg
   xmlns:dc="http://purl.org/dc/elements/1.1/"
   xmlns:cc="http://creativecommons.org/ns#"
   xmlns:rdf="http://www.w3.org/1999/02/22-rdf-syntax-ns#"
   xmlns:svg="http://www.w3.org/2000/svg"
   xmlns="http://www.w3.org/2000/svg"
   id="svg8"
   version="1.1"
   viewBox="0 0 128 128"
   height="128mm"
   width="128mm">
  <defs
     id="defs2" />
  <metadata
     id="metadata5">
    <rdf:RDF>
      <cc:Work
         rdf:about="">
        <dc:format>image/svg+xml</dc:format>
        <dc:type
           rdf:resource="http://purl.org/dc/dcmitype/StillImage" />
        <dc:title></dc:title>
      </cc:Work>
    </rdf:RDF>
  </metadata>
  <g
     transform="translate(-36.444563,-37.833288)"
     id="layer1">
    <path
       id="path3919"
       transform="matrix(0.30881026,0,0,0.30881026,-6.0919597,-32.830904)"
       d="m 182.92969,471.0918 -36.79883,37.9707 c -6.43935,6.64699 -8.88192,14.88813 -8.20508,22.74219 h -0.12695 c 0.13121,58.34746 0.50746,47.37598 -0.0508,64.87304 -0.27799,15.29375 11.54224,30.08854 29.41015,30.09375 H 359.91602 L 293.42383,511.60352 h -96.19141 l 37.82813,-40.51172 z"
       style="color:#000000;font-style:normal;font-variant:normal;font-weight:normal;font-stretch:normal;font-size:medium;line-height:normal;font-family:sans-serif;font-variant-ligatures:normal;font-variant-position:normal;font-variant-caps:normal;font-variant-numeric:normal;font-variant-alternates:normal;font-feature-settings:normal;text-indent:0;text-align:start;text-decoration:none;text-decoration-line:none;text-decoration-style:solid;text-decoration-color:#000000;letter-spacing:normal;word-spacing:normal;text-transform:none;writing-mode:lr-tb;direction:ltr;text-orientation:mixed;dominant-baseline:auto;baseline-shift:baseline;text-anchor:start;white-space:normal;shape-padding:0;clip-rule:nonzero;display:inline;overflow:visible;visibility:visible;opacity:1;isolation:auto;mix-blend-mode:normal;color-interpolation:sRGB;color-interpolation-filters:linearRGB;solid-color:#000000;solid-opacity:1;vector-effect:none;fill:#006eff;fill-opacity:1;fill-rule:nonzero;stroke:none;stroke-width:58.72231674;stroke-linecap:butt;stroke-linejoin:round;stroke-miterlimit:4;stroke-dasharray:none;stroke-dashoffset:0;stroke-opacity:1;color-rendering:auto;image-rendering:auto;shape-rendering:auto;text-rendering:auto;enable-background:accumulate" />
    <path
       id="path3853"
       transform="matrix(0.30881026,0,0,0.30881026,-6.0919597,-32.830904)"
       d="m 293.42383,511.60352 66.49219,115.16796 h 162.90625 c 17.86794,-0.004 29.68833,-14.8 29.41015,-30.09375 -0.0924,-2.89905 -0.12732,-4.39109 -0.17383,-6.17187 l -28.15234,-17.20703 c 0.45999,1.78742 0.69618,3.62505 0.70313,5.4707 -2.2e-4,12.30874 -9.97837,22.28689 -22.28711,22.28711 -12.30951,8.6e-4 -22.28885,-9.9776 -22.28907,-22.28711 0.0133,-10.38613 7.19889,-19.3863 17.32422,-21.69922 l -63.54265,-38.83968 -42.40126,0.0602 3.85435,-6.68731 z m 208.89844,44.8789 c -0.26056,0.005 -0.52101,0.0136 -0.78125,0.0273 0.26024,-0.0137 0.52069,-0.0228 0.78125,-0.0273 z m -2.4375,0.16016 c -0.18713,0.0204 -0.374,0.0432 -0.56055,0.0684 0.18655,-0.0252 0.37342,-0.048 0.56055,-0.0684 z"
       style="color:#000000;font-style:normal;font-variant:normal;font-weight:normal;font-stretch:normal;font-size:medium;line-height:normal;font-family:sans-serif;font-variant-ligatures:normal;font-variant-position:normal;font-variant-caps:normal;font-variant-numeric:normal;font-variant-alternates:normal;font-feature-settings:normal;text-indent:0;text-align:start;text-decoration:none;text-decoration-line:none;text-decoration-style:solid;text-decoration-color:#000000;letter-spacing:normal;word-spacing:normal;text-transform:none;writing-mode:lr-tb;direction:ltr;text-orientation:mixed;dominant-baseline:auto;baseline-shift:baseline;text-anchor:start;white-space:normal;shape-padding:0;clip-rule:nonzero;display:inline;overflow:visible;visibility:visible;opacity:1;isolation:auto;mix-blend-mode:normal;color-interpolation:sRGB;color-interpolation-filters:linearRGB;solid-color:#000000;solid-opacity:1;vector-effect:none;fill:#005498;fill-opacity:1;fill-rule:nonzero;stroke:none;stroke-width:58.72231674;stroke-linecap:butt;stroke-linejoin:round;stroke-miterlimit:4;stroke-dasharray:none;stroke-dashoffset:0;stroke-opacity:1;color-rendering:auto;image-rendering:auto;shape-rendering:auto;text-rendering:auto;enable-background:accumulate" />
    <path
       id="path3901"
       transform="matrix(0.30881026,0,0,0.30881026,-6.0919597,-32.830904)"
       d="m 506.99776,518.19126 -18.41594,-11.25686 4.16623,4.66912 h -37.29551 l -3.66232,6.63753 -17.87695,0.0498 63.44415,38.77948 c 1.62766,-0.38155 3.29309,-0.57875 4.96485,-0.58789 10.19377,0.01 19.08164,6.93454 21.58398,16.81641 l 28.15234,17.20703 c -0.23416,-8.967 0.0135,-10.0212 0.12305,-58.70117 h -0.12695 c 0.67684,-7.85406 -1.76572,-16.0952 -8.20508,-22.74219 l -36.79883,-37.9707 h -27.24591 z"
       style="color:#000000;font-style:normal;font-variant:normal;font-weight:normal;font-stretch:normal;font-size:medium;line-height:normal;font-family:sans-serif;font-variant-ligatures:normal;font-variant-position:normal;font-variant-caps:normal;font-variant-numeric:normal;font-variant-alternates:normal;font-feature-settings:normal;text-indent:0;text-align:start;text-decoration:none;text-decoration-line:none;text-decoration-style:solid;text-decoration-color:#000000;letter-spacing:normal;word-spacing:normal;text-transform:none;writing-mode:lr-tb;direction:ltr;text-orientation:mixed;dominant-baseline:auto;baseline-shift:baseline;text-anchor:start;white-space:normal;shape-padding:0;clip-rule:nonzero;display:inline;overflow:visible;visibility:visible;opacity:1;isolation:auto;mix-blend-mode:normal;color-interpolation:sRGB;color-interpolation-filters:linearRGB;solid-color:#000000;solid-opacity:1;vector-effect:none;fill:#009aff;fill-opacity:1;fill-rule:nonzero;stroke:none;stroke-width:58.72231674;stroke-linecap:butt;stroke-linejoin:round;stroke-miterlimit:4;stroke-dasharray:none;stroke-dashoffset:0;stroke-opacity:1;color-rendering:auto;image-rendering:auto;shape-rendering:auto;text-rendering:auto;enable-background:accumulate" />
    <path
       id="rect3848"
       transform="matrix(0.30881026,0,0,0.30881026,-6.0919597,-32.830904)"
       d="m 260.23242,412.13281 84.75781,89.54883 22.63086,-23.91016 z"
       style="display:inline;opacity:1;fill:#005498;fill-opacity:1;fill-rule:nonzero;stroke:none;stroke-width:3.77952766;stroke-linecap:round;stroke-linejoin:miter;stroke-miterlimit:4;stroke-dasharray:none;stroke-opacity:1;paint-order:normal" />
    <path
       id="path3926"
       transform="matrix(0.30881026,0,0,0.30881026,-6.0919597,-32.830904)"
       d="m 302.85742,245.37695 v 147.00977 h -61.3164 l 18.6914,19.74609 107.38867,65.63867 80.81836,-85.38476 H 387.21484 V 245.37695 Z"
       style="display:inline;opacity:1;fill:#009aff;fill-opacity:1;fill-rule:nonzero;stroke:none;stroke-width:3.77952766;stroke-linecap:round;stroke-linejoin:miter;stroke-miterlimit:4;stroke-dasharray:none;stroke-opacity:1;paint-order:normal" />
    <path
       style="display:inline;opacity:1;fill:#ffffff;fill-opacity:1;fill-rule:nonzero;stroke:#ffffff;stroke-width:0.11671569;stroke-linecap:round;stroke-linejoin:round;stroke-miterlimit:4;stroke-dasharray:none;stroke-opacity:1;paint-order:normal"
       d="m 132.39074,96.230348 a 23.590337,23.590337 0 0 0 -23.5902,23.590212 23.590337,23.590337 0 0 0 23.5902,23.59021 23.590337,23.590337 0 0 0 23.59021,-23.59021 23.590337,23.590337 0 0 0 -23.59021,-23.590212 z m 0.25212,5.187042 17.83138,30.88525 -12.58161,-7.6907 -4.47593,7.6907 0.0175,0.0308 h -18.65346 l 9.33367,-16.14318 v -10e-4 z"
       id="path3936"
       transform="translate(2.7083333e-6,-5.1107222)" />
  </g>
</svg>
